<svg width="33" height="34" viewBox="0 0 33 34" fill="none" xmlns="http://www.w3.org/2000/svg">
<path fill-rule="evenodd" clip-rule="evenodd" d="M16.0813 33.217C7.19983 33.217 0 25.7812 0 16.6085C0 7.43589 7.19983 0 16.0813 0C24.9627 0 32.1625 7.43589 32.1625 16.6085C32.1625 25.7812 24.9627 33.217 16.0813 33.217ZM16.0813 30.1973C23.3479 30.1973 29.2387 24.1134 29.2387 16.6085C29.2387 9.10364 23.3479 3.01973 16.0813 3.01973C8.81463 3.01973 2.92387 9.10364 2.92387 16.6085C2.92387 24.1134 8.81463 30.1973 16.0813 30.1973ZM16.0813 18.7438L11.2673 23.7156L9.19979 21.5803L14.0138 16.6085L9.19979 11.6367L11.2673 9.50142L16.0813 14.4732L20.8953 9.50142L22.9627 11.6367L18.1487 16.6085L22.9627 21.5803L20.8953 23.7156L16.0813 18.7438Z" fill="#FF0000"/>
</svg>
