<svg width="22" height="18" viewBox="0 0 22 18" fill="none" xmlns="http://www.w3.org/2000/svg">
<path d="M1.03189 0.97937C0.461995 0.97937 0 1.44137 0 2.01127C0 2.58116 0.472217 3.02603 1.01786 3.19053C2.03034 3.49576 2.75 4.24134 2.75 5.10695V13.3621C2.75 14.2277 2.03034 14.9733 1.01786 15.2785C0.472217 15.443 0 15.8879 0 16.4578C0 17.0277 0.461995 17.4897 1.03189 17.4897H15.125C18.92 17.4897 22 15.1782 22 12.3302C22 11.1336 21.4546 10.0411 20.5406 9.17337C19.5698 8.25166 19.25 6.4456 19.25 5.10695C19.25 2.83678 16.8025 0.97937 13.75 0.97937H1.03189ZM8.25 5.10695C8.25 3.96715 9.17399 3.04316 10.3138 3.04316H11C12.5125 3.04316 13.75 3.97187 13.75 5.10695C13.75 6.24203 12.5125 7.17074 11 7.17074H10.3138C9.17399 7.17074 8.25 6.24675 8.25 5.10695ZM8.25 12.3302C8.25 10.6205 9.63599 9.23453 11.3457 9.23453H12.375C14.6575 9.23453 16.5 10.6173 16.5 12.3302C16.5 14.0432 14.6575 15.4259 12.375 15.4259H11.3457C9.63599 15.4259 8.25 14.0399 8.25 12.3302Z" fill="white"/>
</svg>
