<svg width="22" height="18" viewBox="0 0 22 18" fill="none" xmlns="http://www.w3.org/2000/svg">
<path d="M5 0.97937C2.23858 0.97937 0 3.21795 0 5.97937V12.4897C0 15.2511 2.23858 17.4897 5 17.4897H17C19.7614 17.4897 22 15.2511 22 12.4897V5.97937C22 3.21795 19.7614 0.97937 17 0.97937H5ZM2.75 5.10643C2.75 3.96692 3.67376 3.04316 4.81327 3.04316H17.1867C18.3262 3.04316 19.25 3.96692 19.25 5.10643V6.73414C19.25 7.76414 18.074 8.35194 17.2501 7.73369C16.8057 7.40013 16.1943 7.40013 15.7499 7.73369L15.5092 7.9143C14.6294 8.57458 14.6294 9.89448 15.5092 10.5548L18.6999 12.9493C19.0462 13.2092 19.25 13.6169 19.25 14.0499C19.25 14.8098 18.6339 15.4259 17.874 15.4259H17.1878C16.7413 15.4259 16.307 15.281 15.9499 15.0131L6.25014 7.73369C5.80567 7.40013 5.19433 7.40013 4.74986 7.73369C3.92605 8.35194 2.75 7.76414 2.75 6.73414V5.10643Z" fill="white"/>
</svg>
