<svg width="22" height="18" viewBox="0 0 22 18" fill="none" xmlns="http://www.w3.org/2000/svg">
<path d="M7.29384 0.97937C6.72465 0.97937 6.26323 1.44079 6.26323 2.00998C6.26323 2.57917 6.72465 3.04058 7.29384 3.04058H11.0656C11.2034 3.04058 11.284 3.19591 11.2046 3.30854L4.90987 13.6146L4.54899 14.2263C4.10949 14.9713 3.30896 15.4285 2.444 15.4285H1.03061C0.461419 15.4285 0 15.8899 0 16.4591C0 17.0283 0.461418 17.4897 1.03061 17.4897H14.7062C15.2753 17.4897 15.7368 17.0283 15.7368 16.4591C15.7368 15.8899 15.2753 15.4285 14.7062 15.4285H10.9344C10.7966 15.4285 10.716 15.2732 10.7954 15.1605L17.0901 4.85445L17.451 4.24274C17.8905 3.49777 18.691 3.04058 19.556 3.04058H20.9694C21.5386 3.04058 22 2.57917 22 2.00998C22 1.44079 21.5386 0.97937 20.9694 0.97937L7.29384 0.97937Z" fill="white"/>
</svg>
