<svg width="32" height="32" viewBox="0 0 32 32" fill="none" xmlns="http://www.w3.org/2000/svg">
<path fill-rule="evenodd" clip-rule="evenodd" d="M23.2523 20.9559L32 29.7036L29.7036 32L20.9559 23.2523C18.7562 24.9622 15.9921 25.9805 12.9902 25.9805C5.81593 25.9805 0 20.1645 0 12.9902C0 5.81593 5.81593 0 12.9902 0C20.1645 0 25.9805 5.81593 25.9805 12.9902C25.9805 15.9921 24.9622 18.7562 23.2523 20.9559ZM12.9902 22.7329C18.371 22.7329 22.7329 18.371 22.7329 12.9902C22.7329 7.6095 18.371 3.24756 12.9902 3.24756C7.6095 3.24756 3.24756 7.6095 3.24756 12.9902C3.24756 18.371 7.6095 22.7329 12.9902 22.7329Z" fill="#6D7C90" fill-opacity="0.4"/>
</svg>
